# xmcd
#
# Track frame offsets: 
#        150
#        19818
#        40909
#        57387
#        75950
#        89056
#        103582
#        120992
#        142505
#        159677
#        178690
#
# Disc length: 2614 seconds
#
# Revision: 0
# Processed by: cddbd v1.5.2PL0 Copyright (c) Steve Scherf et al.
# Submitted via: ExactAudioCopyFreeDBPlugin 1.0
#
DISCID=820a340b
DTITLE=Robert Vincent - Life in Easy Steps
DYEAR=2013
DGENRE=Alt. country
TTITLE0=Light of the Stars
TTITLE1=Burns
TTITLE2=Riot's City
TTITLE3=Blue
TTITLE4=Life in Easy Steps
TTITLE5=Who Are You to Say
TTITLE6=The Passage
TTITLE7=Demons
TTITLE8=Heaven Knows
TTITLE9=My Pill
TTITLE10=Second Chance
EXTD=
EXTT0=
EXTT1=
EXTT2=
EXTT3=
EXTT4=
EXTT5=
EXTT6=
EXTT7=
EXTT8=
EXTT9=
EXTT10=
PLAYORDER=
